<?xml version="1.0" standalone="no"?>
<!DOCTYPE svg PUBLIC "-//W3C//DTD SVG 20010904//EN"
 "http://www.w3.org/TR/2001/REC-SVG-20010904/DTD/svg10.dtd">
<svg version="1.0" xmlns="http://www.w3.org/2000/svg"
 width="612.000000pt" height="612.000000pt" viewBox="0 0 612.000000 612.000000"
 preserveAspectRatio="xMidYMid meet">
<metadata>
Created by potrace 1.14, written by Peter Selinger 2001-2017
</metadata>
<g transform="translate(0.000000,612.000000) scale(0.100000,-0.100000)"
fill="#000000" stroke="none">
<path d="M1949 4647 c-19 -12 -42 -38 -51 -57 -17 -33 -18 -127 -18 -1528 0
-1619 -3 -1529 55 -1582 l27 -25 1061 -5 c584 -3 1080 -1 1102 3 22 5 51 18
64 30 54 50 51 -29 51 1577 0 1617 3 1527 -55 1580 l-27 25 -1087 3 -1088 2
-34 -23z m2070 -341 c8 -9 11 -79 9 -232 l-3 -219 -965 0 -965 0 -3 219 c-2
153 1 223 9 232 10 12 167 14 959 14 792 0 949 -2 959 -14z m-414 -891 l0
-120 -119 -3 c-66 -1 -123 1 -127 5 -10 10 -14 217 -4 233 4 7 47 10 128 8
l122 -3 0 -120z m413 113 c18 -18 16 -212 -2 -227 -9 -8 -54 -11 -132 -9
l-119 3 -3 109 c-2 71 1 113 9 122 15 18 229 20 247 2z m-1658 -483 l0 -125
-129 0 c-108 0 -130 3 -135 16 -8 21 -8 219 1 227 3 4 64 7 135 7 l128 0 0
-125z m415 0 l0 -120 -130 0 -130 0 -3 109 c-1 61 0 116 2 123 4 11 34 13 133
11 l128 -3 0 -120z m423 20 c5 -157 14 -146 -136 -143 l-127 3 -3 123 -3 123
133 -3 133 -3 3 -100z m407 -20 l0 -120 -124 -3 c-93 -2 -126 1 -133 10 -9 16
-11 222 -1 232 4 3 63 5 132 4 l126 -3 0 -120z m420 0 l0 -120 -130 0 -130 0
-3 109 c-1 61 0 116 2 123 4 11 34 13 133 11 l128 -3 0 -120z m-1670 -365 l0
-125 -119 -3 c-78 -2 -123 1 -132 9 -19 15 -20 219 -2 237 9 9 48 12 133 10
l120 -3 0 -125z m413 122 c9 -7 12 -39 10 -128 l-3 -119 -110 -3 c-166 -4
-155 -14 -155 127 0 86 3 121 13 124 20 9 231 7 245 -1z m420 -4 c18 -18 16
-222 -2 -237 -9 -8 -54 -11 -132 -9 l-119 3 -3 114 c-1 63 0 121 2 128 7 18
236 19 254 1z m417 -118 l0 -125 -119 -3 c-78 -2 -123 1 -132 9 -19 15 -20
219 -2 237 9 9 48 12 133 10 l120 -3 0 -125z m413 118 c16 -16 16 -220 0 -236
-13 -13 -212 -17 -242 -6 -13 5 -16 26 -16 124 0 85 3 120 13 123 27 11 233 7
245 -5z m-1660 -500 l-3 -123 -124 -3 c-93 -2 -126 1 -133 10 -9 15 -11 199
-2 222 5 13 27 16 135 16 l130 0 -3 -122z m417 -3 l0 -120 -130 0 -130 0 -3
109 c-1 61 0 116 2 123 4 11 34 13 133 11 l128 -3 0 -120z m423 20 c5 -157 14
-146 -136 -143 l-127 3 -3 123 -3 123 133 -3 133 -3 3 -100z m410 -17 l-3
-123 -124 -3 c-93 -2 -126 1 -133 10 -9 16 -11 222 -1 231 3 4 64 7 135 7
l129 0 -3 -122z m417 -188 l0 -305 -130 0 -130 0 -3 308 -2 308 132 -3 133 -3
0 -305z m-1678 -58 c13 -8 21 -222 9 -241 -10 -16 -238 -15 -254 1 -8 8 -12
49 -12 120 0 91 3 108 18 117 20 12 221 14 239 3z m422 -6 c8 -9 11 -52 9
-127 l-3 -114 -130 0 -130 0 -3 114 c-2 75 1 118 9 127 16 20 232 20 248 0z
m412 4 c17 -10 19 -22 19 -119 0 -81 -4 -112 -14 -120 -9 -8 -54 -11 -132 -9
l-119 3 -3 119 c-2 89 1 121 10 128 19 11 216 10 239 -2z m424 -120 l0 -125
-119 -3 c-78 -2 -123 1 -132 9 -19 15 -20 219 -2 237 9 9 48 12 133 10 l120
-3 0 -125z"/>
</g>
</svg>
